<svg width="32" height="32" viewBox="0 0 32 32" fill="none" xmlns="http://www.w3.org/2000/svg">
<path d="M5.66667 0H26.3333C29.4667 0 32 2.53167 32 5.66294V25.5165C32 28.6478 29.4667 31.1795 26.3333 31.1795H5.66667C2.53333 31.1795 0 28.6478 0 25.5165V5.66294C0 2.53167 2.53333 0 5.66667 0Z" fill="#00005B"/>
<path d="M12.8533 18.6544H7.89335L6.88001 21.799C6.85335 21.9189 6.74668 21.9989 6.62668 21.9856H4.12001C3.97335 21.9856 3.93335 21.9056 3.97335 21.7457L8.26668 9.44714C8.30668 9.31389 8.34668 9.19397 8.40001 9.03408C8.45335 8.75426 8.48001 8.46112 8.48001 8.16798C8.46668 8.10136 8.52001 8.03473 8.58668 8.02141C8.60001 8.02141 8.61335 8.02141 8.62668 8.02141H12.04C12.1333 8.02141 12.2 8.06138 12.2133 8.128L17.08 21.7857C17.12 21.9323 17.08 21.9989 16.9467 21.9989H14.16C14.0667 22.0122 13.9733 21.9456 13.9467 21.8523L12.8533 18.6544ZM8.66668 16.0028H12.0533C11.9733 15.723 11.8667 15.3899 11.7467 15.0435C11.6267 14.6837 11.5067 14.2973 11.3867 13.8975C11.2533 13.4845 11.1333 13.0847 11 12.6717C10.8667 12.2586 10.7467 11.8722 10.64 11.4858C10.5333 11.1127 10.44 10.7663 10.3467 10.4465H10.32C10.2 11.0194 10.0533 11.5924 9.86668 12.1653C9.66668 12.8049 9.46668 13.4712 9.25335 14.1374C9.08001 14.8169 8.86668 15.4432 8.66668 16.0028ZM24.9867 17.4286H20.76C20.8133 17.8416 20.9467 18.2547 21.1733 18.6144C21.4133 18.9742 21.7467 19.254 22.1467 19.4139C22.68 19.6404 23.2667 19.7604 23.8533 19.747C24.32 19.7337 24.7867 19.6937 25.24 19.6005C25.6533 19.5472 26.0533 19.4406 26.4267 19.294C26.4933 19.2407 26.5333 19.2673 26.5333 19.4006V21.4392C26.5333 21.4925 26.52 21.5458 26.5067 21.5991C26.48 21.6391 26.4533 21.6658 26.4133 21.6924C25.9867 21.879 25.5467 22.0122 25.08 22.0922C24.4533 22.2121 23.8267 22.2654 23.1867 22.252C22.1733 22.252 21.32 22.0922 20.6267 21.7857C19.9733 21.5059 19.4 21.0662 18.9467 20.5199C18.52 20.0002 18.2133 19.4139 18.0267 18.7743C17.84 18.1481 17.7467 17.4952 17.7467 16.8289C17.7467 16.1094 17.8533 15.4032 18.08 14.7103C18.2933 14.0441 18.6267 13.4312 19.08 12.8849C19.52 12.3519 20.0667 11.9255 20.6933 11.619C21.32 11.3126 22.0667 11.206 22.92 11.206C23.6267 11.1927 24.3333 11.3259 24.9867 11.619C25.5333 11.8589 26.0133 12.2186 26.3867 12.685C26.7333 13.138 27.0133 13.6444 27.1867 14.204C27.36 14.737 27.44 15.2833 27.44 15.8296C27.44 16.1494 27.4267 16.4292 27.4133 16.6824C27.3867 16.9355 27.3733 17.1221 27.36 17.242C27.3467 17.3353 27.2667 17.4152 27.1733 17.4152C27.0933 17.4152 26.9467 17.4286 26.7333 17.4419C26.52 17.4685 26.2667 17.4818 25.96 17.4818C25.6533 17.4818 25.3333 17.4286 24.9867 17.4286ZM20.76 15.4832H23.5733C23.92 15.4832 24.1733 15.4832 24.3333 15.4698C24.44 15.4565 24.5467 15.4299 24.64 15.3632V15.23C24.64 15.0568 24.6133 14.8969 24.56 14.737C24.32 13.9908 23.6133 13.4845 22.8267 13.5111C22.0933 13.4712 21.4 13.8576 21.0533 14.5238C20.8933 14.8303 20.8 15.1501 20.76 15.4832Z" fill="#9999FF"/>
</svg>
