<svg width="33" height="32" viewBox="0 0 33 32" fill="none" xmlns="http://www.w3.org/2000/svg">
<path d="M27.2028 0.166664H5.7976C2.61482 0.166664 0.034668 2.74682 0.034668 5.9296V26.2371C0.034668 29.4198 2.61482 32 5.7976 32H27.2028C30.3856 32 32.9657 29.4198 32.9657 26.2371V5.9296C32.9657 2.74682 30.3856 0.166664 27.2028 0.166664Z" fill="#330000"/>
<path d="M16.6086 19.9254H11.6977L10.4299 23.5862C10.4153 23.707 10.3389 23.7673 10.2008 23.7673H7.89558C7.74191 23.7673 7.68839 23.6919 7.73505 23.5409L12.1835 10.3287C12.3091 9.92644 12.3711 9.50701 12.3673 9.08558C12.3649 9.06697 12.3667 9.04804 12.3727 9.03026C12.3787 9.01248 12.3888 8.99633 12.402 8.98306C12.4153 8.96979 12.4315 8.95975 12.4492 8.95373C12.467 8.94772 12.486 8.94588 12.5046 8.94837H15.7318C15.8251 8.94837 15.8786 8.98678 15.8937 9.06088L20.8718 23.5643C20.9184 23.7015 20.88 23.7673 20.7565 23.7673H18.1756C18.1278 23.7702 18.0803 23.7586 18.0392 23.7342C17.9981 23.7097 17.9653 23.6734 17.945 23.6301L16.6086 19.9254ZM12.2466 17.4555H16.0721C15.9802 17.2538 14.2595 11.7022 14.136 11.2343H14.1141L12.2466 17.4555ZM23.6229 11.6926C23.4065 11.7019 23.1905 11.6677 22.9876 11.592C22.7847 11.5164 22.599 11.4008 22.4415 11.2522C22.2874 11.0955 22.1675 10.9084 22.0896 10.7029C22.0116 10.4974 21.9773 10.2779 21.9887 10.0584C21.9785 9.83613 22.0146 9.61414 22.0946 9.40652C22.1747 9.19891 22.297 9.01019 22.4538 8.85232C22.6127 8.70117 22.8001 8.58326 23.005 8.5055C23.21 8.42775 23.4285 8.39171 23.6476 8.39951C23.8671 8.38808 24.0866 8.42243 24.2921 8.50039C24.4976 8.57834 24.6846 8.69819 24.8413 8.85232C24.9914 9.01391 25.1076 9.20383 25.1832 9.41094C25.2589 9.61805 25.2924 9.83818 25.2818 10.0584C25.2932 10.2779 25.2589 10.4974 25.1809 10.7029C25.103 10.9084 24.9831 11.0955 24.829 11.2522C24.6674 11.4022 24.4775 11.5184 24.2704 11.594C24.0633 11.6697 23.8431 11.7032 23.6229 11.6926ZM22.2631 23.5615V12.9742C22.2594 12.9492 22.2616 12.9237 22.2696 12.8997C22.2775 12.8757 22.2909 12.8539 22.3088 12.836C22.3267 12.8181 22.3485 12.8047 22.3725 12.7968C22.3965 12.7888 22.422 12.7866 22.447 12.7903H24.8235C24.8485 12.7869 24.8738 12.7893 24.8977 12.7974C24.9216 12.8054 24.9432 12.8188 24.9611 12.8366C24.9789 12.8544 24.9923 12.8761 25.0003 12.9C25.0084 12.9238 25.0108 12.9492 25.0074 12.9742V23.5835C25.0111 23.6085 25.0089 23.634 25.0009 23.658C24.993 23.682 24.9796 23.7038 24.9617 23.7217C24.9438 23.7395 24.922 23.753 24.898 23.7609C24.874 23.7688 24.8485 23.771 24.8235 23.7673H22.4689C22.441 23.7712 22.4126 23.7685 22.3858 23.7596C22.3591 23.7506 22.3348 23.7356 22.3148 23.7156C22.2949 23.6957 22.2799 23.6714 22.2709 23.6446C22.2619 23.6179 22.2593 23.5894 22.2631 23.5615Z" fill="#FF9A00"/>
</svg>
