<svg width="454" height="285" viewBox="0 0 454 285" fill="none" xmlns="http://www.w3.org/2000/svg">
<g filter="url(#filter0_d_22_2230)">
<rect x="20" y="9" width="414" height="245" rx="17" fill="#FFF8ED"/>
<path fill-rule="evenodd" clip-rule="evenodd" d="M271.207 104.053C274.075 117.506 270.637 131.127 262.612 141.479C261.298 133.048 257.688 128.834 253.475 125.26C243.595 116.899 234.933 104.594 247.304 95.3546C253.036 102.772 259.78 108.402 262.915 118.618C261.869 108.168 257.725 102.538 251.924 94.8498C251.485 94.2756 251.082 93.7378 250.676 93.1636C262.037 89.623 269.287 94.8828 271.244 104.053H271.207Z" fill="#6EAB3B"/>
<path fill-rule="evenodd" clip-rule="evenodd" d="M249.396 153.041C237.494 159.954 223.47 160.865 211.162 156.446C218.785 152.569 221.682 147.85 223.774 142.726C228.661 130.758 237.695 118.72 250.307 127.62C245.014 135.374 241.744 143.501 232.977 149.636C242.586 145.422 246.697 139.723 252.195 131.833C252.6 131.263 253.003 130.688 253.409 130.114C260.286 139.825 257.52 148.322 249.396 153.041Z" fill="#6EAB3B"/>
<path fill-rule="evenodd" clip-rule="evenodd" d="M196.059 147.412C185.81 138.209 180.619 125.158 181.022 112.078C187.057 118.113 192.452 119.393 197.946 119.832C210.861 120.776 225.087 125.666 220.503 140.4C211.502 137.77 202.734 137.163 194.204 130.721C201.183 138.578 207.859 140.703 217.098 143.501C217.771 143.703 218.444 143.904 219.121 144.109C212.006 153.648 203.071 153.648 196.092 147.379L196.059 147.412Z" fill="#6EAB3B"/>
<path fill-rule="evenodd" clip-rule="evenodd" d="M184.932 94.9521C190.528 82.3767 201.318 73.375 213.861 69.7321C209.984 77.3512 210.422 82.8816 211.736 88.2074C214.805 100.783 214.567 115.82 199.127 116.024C198.857 106.65 196.699 98.1199 200.206 88.0391C194.914 97.1102 194.947 104.122 195.115 113.764C195.115 114.473 195.148 115.18 195.148 115.853C183.889 112.012 181.124 103.515 184.932 94.9521Z" fill="#6EAB3B"/>
<path fill-rule="evenodd" clip-rule="evenodd" d="M231.392 68.1482C245.079 69.5638 256.982 77.0477 264.33 87.8709C255.903 86.5213 250.778 88.6463 246.093 91.5468C235.101 98.3575 220.704 102.773 215.748 88.1745C224.581 85.0397 231.999 80.354 242.687 80.5223C232.438 78.295 225.763 80.4893 216.659 83.6241C215.986 83.8584 215.342 84.096 214.669 84.2972C214.837 72.395 222.054 67.1352 231.392 68.1152V68.1482Z" fill="#6EAB3B"/>
<path fill-rule="evenodd" clip-rule="evenodd" d="M236.956 113.596C236.956 107.897 232.336 103.244 226.604 103.244C220.906 103.244 216.253 107.864 216.253 113.596C216.253 119.294 220.873 123.947 226.604 123.947C232.303 123.947 236.956 119.327 236.956 113.596Z" fill="#19AFF0"/>
<path d="M184.369 182.754H188.724V185.816H184.369V194.673H181.003V173.225H189.912V176.287H184.369V182.754Z" fill="#333333"/>
<path d="M205.08 194.673H201.675L201.094 190.779H196.963L196.382 194.673H193.293L196.712 173.225H201.648L205.08 194.673ZM197.398 187.875H200.645L199.022 177.026L197.398 187.875Z" fill="#333333"/>
<path d="M208.847 178.372C208.847 176.64 209.26 175.31 210.088 174.386C210.913 173.456 212.154 172.987 213.81 172.987C215.463 172.987 216.704 173.456 217.532 174.386C218.357 175.31 218.773 176.64 218.773 178.372V179.045H215.592V178.161C215.592 177.389 215.44 176.841 215.143 176.524C214.853 176.208 214.437 176.049 213.903 176.049C213.375 176.049 212.959 176.208 212.662 176.524C212.371 176.841 212.226 177.389 212.226 178.161C212.226 178.9 212.388 179.553 212.715 180.114C213.038 180.669 213.444 181.197 213.929 181.698C214.421 182.2 214.949 182.701 215.513 183.203C216.074 183.705 216.598 184.252 217.083 184.84C217.575 185.43 217.984 186.103 218.311 186.859C218.644 187.618 218.813 188.506 218.813 189.525C218.813 191.261 218.384 192.594 217.532 193.525C216.688 194.458 215.437 194.924 213.784 194.924C212.127 194.924 210.873 194.458 210.022 193.525C209.177 192.594 208.755 191.261 208.755 189.525V188.205H211.949V189.737C211.949 190.522 212.107 191.066 212.424 191.373C212.741 191.673 213.163 191.822 213.691 191.822C214.219 191.822 214.642 191.673 214.958 191.373C215.275 191.066 215.434 190.522 215.434 189.737C215.434 189.007 215.269 188.361 214.945 187.796C214.619 187.235 214.209 186.701 213.718 186.199C213.233 185.698 212.708 185.203 212.147 184.708C211.583 184.206 211.055 183.662 210.563 183.071C210.078 182.474 209.669 181.797 209.336 181.038C209.009 180.283 208.847 179.395 208.847 178.372Z" fill="#333333"/>
<path d="M226.743 194.673H223.377V173.225H226.743V182.424H230.57V173.225H234.002V194.673H230.57V185.486H226.743V194.673Z" fill="#333333"/>
<path d="M242.183 189.737C242.183 190.522 242.342 191.07 242.658 191.386C242.975 191.697 243.401 191.848 243.939 191.848C244.467 191.848 244.889 191.697 245.206 191.386C245.522 191.07 245.681 190.522 245.681 189.737V178.161C245.681 177.389 245.522 176.841 245.206 176.524C244.889 176.208 244.467 176.049 243.939 176.049C243.401 176.049 242.975 176.208 242.658 176.524C242.342 176.841 242.183 177.389 242.183 178.161V189.737ZM238.817 178.372C238.817 176.64 239.256 175.31 240.137 174.386C241.015 173.456 242.282 172.987 243.939 172.987C245.592 172.987 246.856 173.456 247.727 174.386C248.604 175.31 249.047 176.64 249.047 178.372V189.525C249.047 191.261 248.604 192.594 247.727 193.525C246.856 194.458 245.592 194.924 243.939 194.924C242.282 194.924 241.015 194.458 240.137 193.525C239.256 192.594 238.817 191.261 238.817 189.525V178.372Z" fill="#333333"/>
<path d="M253.862 173.225H257.228V194.673H253.862V173.225Z" fill="#333333"/>
<path d="M262.319 173.225H267.651C269.341 173.225 270.598 173.68 271.426 174.584C272.251 175.482 272.667 176.798 272.667 178.531V189.367C272.667 191.109 272.251 192.429 271.426 193.327C270.598 194.224 269.341 194.673 267.651 194.673H262.319V173.225ZM265.685 176.287V191.611H267.585C268.113 191.611 268.529 191.459 268.839 191.149C269.146 190.842 269.301 190.301 269.301 189.525V178.372C269.301 177.6 269.146 177.059 268.839 176.749C268.529 176.442 268.113 176.287 267.585 176.287H265.685Z" fill="#333333"/>
<mask id="mask0_22_2230" style="mask-type:alpha" maskUnits="userSpaceOnUse" x="20" y="9" width="414" height="245">
<rect x="20" y="9" width="414" height="245" rx="17" fill="#FFF8ED"/>
</mask>
<g mask="url(#mask0_22_2230)">
<path fill-rule="evenodd" clip-rule="evenodd" d="M3.15064 11.3463C16.3015 4.51629 28.458 -5.18376 43.1601 -3.71807C59.1123 -2.12776 72.0739 7.79392 83.1193 19.3186C97.2995 34.1142 118.989 50.0184 113.725 69.9092C108.453 89.8298 80.9074 91.3431 61.9059 99.4782C48.1176 105.381 34.39 113.919 19.9601 110.053C6.14425 106.351 0.551861 91.3746 -8.7323 80.5537C-20.4008 66.9539 -43.456 57.4084 -40.4131 39.6864C-37.3777 22.0078 -12.83 19.646 3.15064 11.3463Z" fill="#A6BF73"/>
<path fill-rule="evenodd" clip-rule="evenodd" d="M409.846 -16.5734C423.885 -18.4464 438.366 -14.0932 448.953 -4.66985C460.134 5.28198 466.012 19.5673 467.226 34.4994C468.56 50.9024 469.825 71.8973 455.888 80.6147C442.027 89.2848 426.142 71.623 409.846 70.39C396.111 69.3507 382.36 80.7501 370.271 74.1365C355.867 66.2558 341.983 50.7824 344.243 34.4994C346.465 18.491 367.192 14.457 379.932 4.5383C389.944 -3.2561 397.276 -14.8965 409.846 -16.5734Z" fill="#96A96F"/>
<path fill-rule="evenodd" clip-rule="evenodd" d="M48.4789 196.74C58.6661 197.37 68.4283 198.29 77.1103 203.664C89.0961 211.084 106.583 218.24 105.985 232.339C105.385 246.49 84.9257 248.814 74.7775 258.678C64.9478 268.233 61.8925 285.454 48.4789 288.236C33.8773 291.265 16.2772 285.143 8.44356 272.436C1.08505 260.499 12.5521 246.291 14.0206 232.339C15.2001 221.135 8.24986 207.981 16.08 199.891C23.9312 191.78 37.2206 196.044 48.4789 196.74Z" fill="#E5EBC8"/>
<path fill-rule="evenodd" clip-rule="evenodd" d="M392.159 173.231C408.539 171.641 424.692 178.39 436.741 189.592C449.235 201.209 460.052 217.254 457.668 234.14C455.425 250.026 438.51 257.975 425.718 267.673C415.437 275.467 404.878 281.625 392.159 283.805C375.932 286.587 358.681 290.249 344.701 281.561C327.781 271.046 309.709 253.888 312.238 234.14C314.732 214.666 339.847 209.386 355.47 197.48C367.59 188.243 376.987 174.703 392.159 173.231Z" fill="#CEDFA8"/>
</g>
</g>
<defs>
<filter id="filter0_d_22_2230" x="0" y="0" width="454" height="285" filterUnits="userSpaceOnUse" color-interpolation-filters="sRGB">
<feFlood flood-opacity="0" result="BackgroundImageFix"/>
<feColorMatrix in="SourceAlpha" type="matrix" values="0 0 0 0 0 0 0 0 0 0 0 0 0 0 0 0 0 0 127 0" result="hardAlpha"/>
<feOffset dy="11"/>
<feGaussianBlur stdDeviation="10"/>
<feComposite in2="hardAlpha" operator="out"/>
<feColorMatrix type="matrix" values="0 0 0 0 0 0 0 0 0 0 0 0 0 0 0 0 0 0 0.4 0"/>
<feBlend mode="normal" in2="BackgroundImageFix" result="effect1_dropShadow_22_2230"/>
<feBlend mode="normal" in="SourceGraphic" in2="effect1_dropShadow_22_2230" result="shape"/>
</filter>
</defs>
</svg>
