<svg width="31" height="30" viewBox="0 0 31 30" fill="none" xmlns="http://www.w3.org/2000/svg">
<path d="M15.4981 0C6.94013 0 8.94442e-06 6.88584 8.94442e-06 15.3802C-0.0034875 18.6039 1.01819 21.7473 2.92066 24.3659C4.82312 26.9846 7.51015 28.9461 10.602 29.9733C11.377 30.115 11.6599 29.6401 11.6599 29.2323C11.6599 28.8665 11.6463 27.8995 11.6386 26.6166C7.32763 27.5453 6.41701 24.5543 6.41701 24.5543C5.71369 22.7773 4.69651 22.3043 4.69651 22.3043C3.28794 21.3507 4.80113 21.3699 4.80113 21.3699C6.35694 21.479 7.17457 22.9554 7.17457 22.9554C8.55794 25.3049 10.8035 24.627 11.687 24.2326C11.8265 23.2388 12.2276 22.5609 12.6713 22.176C9.23025 21.7873 5.61101 20.468 5.61101 14.5759C5.61101 12.8966 6.21551 11.5236 7.2075 10.4475C7.04669 10.0588 6.51582 8.49433 7.35863 6.3784C7.35863 6.3784 8.66063 5.96479 11.6211 7.95433C12.8858 7.61275 14.1909 7.43889 15.5019 7.43732C16.8131 7.43989 18.1181 7.61439 19.3827 7.95625C22.3413 5.96671 23.6414 6.38032 23.6414 6.38032C24.4861 8.49815 23.9552 10.0607 23.7964 10.4494C24.7903 11.5256 25.389 12.8985 25.389 14.5778C25.389 20.4852 21.7659 21.7854 18.3132 22.1664C18.8693 22.6413 19.3653 23.5796 19.3653 25.0138C19.3653 27.0704 19.3459 28.7287 19.3459 29.2323C19.3459 29.644 19.6249 30.1227 20.4116 29.9714C23.5004 28.9418 26.1841 26.9795 28.0839 24.3614C29.9837 21.7434 31.0037 18.6019 31 15.3802C31 6.88584 24.0599 0 15.4981 0Z" fill="#5C6BC0"/>
</svg>
