<svg width="34" height="38" viewBox="0 0 34 38" fill="none" xmlns="http://www.w3.org/2000/svg">
<path d="M3.01243 33.798L0 0H33.1367L30.1243 33.798L16.5316 37.6186" fill="#E34F26"/>
<path d="M16.6053 34.6796L27.5529 31.6672L30.1244 2.71851H16.6053" fill="#EF652A"/>
<path d="M16.605 15.2826H11.0945L10.7271 11.0211H16.605V6.90656H6.17172L7.27383 19.4706H16.605V15.2826ZM16.5315 26.0832L11.9027 24.8342L11.6088 21.5279H7.49425L8.00857 28.067L16.5315 30.4182V26.0832Z" fill="#EBEBEB"/>
<path d="M16.5315 15.2826V19.4706H21.6746L21.1603 24.8342L16.5315 26.0832V30.4182L25.0544 28.067L26.23 15.2826H16.5315ZM16.5315 6.90656V11.0211H26.5974L26.9648 6.90656H16.5315Z" fill="white"/>
</svg>
