<svg width="100" height="100" viewBox="0 0 100 100" fill="none" xmlns="http://www.w3.org/2000/svg">
<circle cx="50" cy="50" r="50" fill="white"/>
<path d="M26.8234 66.5518V62.0911H34.0152V41.2442H26.8234V36.7835H46.4869V41.2442H39.2952V62.0911H46.4869V66.5518H26.8234ZM64.0388 67.098C61.945 67.098 59.9422 66.7187 58.0305 65.96C56.1188 65.2014 54.4195 64.1242 52.9326 62.7283L56.0277 59.1324C57.1505 60.1338 58.425 60.9531 59.8512 61.5904C61.2774 62.1973 62.7795 62.5007 64.3574 62.5007C66.087 62.5007 67.407 62.1669 68.3174 61.4993C69.2277 60.8014 69.6829 59.9366 69.6829 58.9049C69.6829 58.0249 69.4705 57.3269 69.0457 56.8111C68.6208 56.2649 68.0291 55.8097 67.2705 55.4455C66.5422 55.0814 65.6774 54.7021 64.676 54.3076L60.625 52.5324C59.5933 52.1076 58.5767 51.5614 57.5753 50.8938C56.6043 50.2262 55.8002 49.3766 55.1629 48.3449C54.556 47.3131 54.2526 46.069 54.2526 44.6124C54.2526 43.0345 54.6926 41.6235 55.5726 40.3793C56.4526 39.1049 57.6664 38.1035 59.2139 37.3752C60.7919 36.6166 62.5822 36.2373 64.585 36.2373C66.4057 36.2373 68.1353 36.5862 69.7739 37.2842C71.4429 37.9518 72.8995 38.8621 74.1436 40.0152L71.4126 43.3835C70.4112 42.5642 69.3491 41.9421 68.2264 41.5173C67.1339 41.0621 65.8291 40.8345 64.3119 40.8345C62.916 40.8345 61.7781 41.138 60.8981 41.7449C60.0181 42.3518 59.5781 43.2166 59.5781 44.3393C59.5781 45.098 59.8208 45.72 60.3064 46.2055C60.7919 46.6911 61.4139 47.1159 62.1726 47.48C62.9615 47.8442 63.796 48.1931 64.676 48.5269L68.5905 50.2111C69.865 50.6966 70.9877 51.2883 71.9588 51.9862C72.9298 52.6842 73.6884 53.549 74.2346 54.5807C74.7808 55.5821 75.0539 56.8111 75.0539 58.2676C75.0539 59.8759 74.6139 61.3476 73.7339 62.6828C72.8539 64.018 71.5946 65.0952 69.956 65.9145C68.3174 66.7035 66.345 67.098 64.0388 67.098Z" fill="#40475A"/>
</svg>
