<svg width="240" height="22" viewBox="0 0 240 22" fill="none" xmlns="http://www.w3.org/2000/svg">
<path d="M9.952 17.064L0.832 11.016V9.048L9.952 3V5.568L3.16 9.984V10.08L9.952 14.496V17.064ZM215.923 21.84L223.819 0.959999H226.195L218.299 21.84H215.923ZM230.698 17.064V14.496L237.49 10.08V9.984L230.698 5.568V3L239.818 9.048V11.016L230.698 17.064Z" fill="#68A4FF"/>
<path d="M14.4066 18V15.648H18.1986V4.656H14.4066V2.304H24.7746V4.656H20.9826V15.648H24.7746V18H14.4066ZM34.0533 18.288C32.9493 18.288 31.8933 18.112 30.8853 17.76C29.8773 17.392 29.0053 16.96 28.2693 16.464L29.4693 14.712C30.1733 15.176 30.9333 15.544 31.7493 15.816C32.5653 16.072 33.4533 16.2 34.4133 16.2C35.2293 16.2 35.8293 16.064 36.2133 15.792C36.6133 15.504 36.8133 15.168 36.8133 14.784C36.8133 14.592 36.7653 14.416 36.6693 14.256C36.5893 14.096 36.4373 13.952 36.2133 13.824C35.9893 13.68 35.6613 13.544 35.2293 13.416C34.7973 13.288 34.2373 13.152 33.5493 13.008C31.9813 12.672 30.8293 12.216 30.0933 11.64C29.3573 11.064 28.9893 10.336 28.9893 9.456C28.9893 8.416 29.4373 7.568 30.3333 6.912C31.2453 6.256 32.5253 5.928 34.1733 5.928C35.1493 5.928 36.0613 6.088 36.9093 6.408C37.7733 6.728 38.5013 7.088 39.0933 7.488L37.8213 9.192C37.2613 8.808 36.6453 8.52 35.9733 8.328C35.3013 8.12 34.6213 8.016 33.9333 8.016C33.4053 8.016 32.9813 8.072 32.6613 8.184C32.3573 8.296 32.1253 8.456 31.9653 8.664C31.8213 8.856 31.7493 9.072 31.7493 9.312C31.7493 9.728 31.9893 10.04 32.4693 10.248C32.9493 10.456 33.7333 10.68 34.8213 10.92C36.0853 11.192 37.0613 11.504 37.7493 11.856C38.4373 12.192 38.9093 12.584 39.1653 13.032C39.4373 13.464 39.5733 14 39.5733 14.64C39.5733 15.312 39.3573 15.928 38.9253 16.488C38.5093 17.032 37.8933 17.472 37.0773 17.808C36.2613 18.128 35.2533 18.288 34.0533 18.288ZM43.1399 18V1.056H45.9239V5.424L45.7559 7.944H45.8279C46.3399 7.4 46.9319 6.928 47.6039 6.528C48.2919 6.128 49.0839 5.928 49.9799 5.928C51.3399 5.928 52.3399 6.344 52.9799 7.176C53.6199 8.008 53.9399 9.184 53.9399 10.704V18H51.1559V11.064C51.1559 10.12 50.9879 9.424 50.6519 8.976C50.3159 8.528 49.7479 8.304 48.9479 8.304C48.3719 8.304 47.8599 8.44 47.4119 8.712C46.9639 8.984 46.4679 9.4 45.9239 9.96V18H43.1399ZM61.2025 18.288C60.4345 18.288 59.7545 18.144 59.1625 17.856C58.5705 17.552 58.1065 17.144 57.7705 16.632C57.4345 16.12 57.2665 15.52 57.2665 14.832C57.2665 13.52 57.8905 12.52 59.1385 11.832C60.4025 11.128 62.4905 10.672 65.4025 10.464C65.3705 10.032 65.2505 9.64 65.0425 9.288C64.8505 8.936 64.5545 8.664 64.1545 8.472C63.7545 8.264 63.2345 8.16 62.5945 8.16C62.1465 8.16 61.7065 8.216 61.2745 8.328C60.8425 8.44 60.4105 8.592 59.9785 8.784C59.5625 8.976 59.1465 9.184 58.7305 9.408L57.7225 7.56C58.2025 7.272 58.7305 7.008 59.3065 6.768C59.8825 6.512 60.4905 6.312 61.1305 6.168C61.7705 6.008 62.4265 5.928 63.0985 5.928C64.2025 5.928 65.1225 6.128 65.8585 6.528C66.6105 6.912 67.1785 7.488 67.5625 8.256C67.9625 9.008 68.1625 9.928 68.1625 11.016V18H65.9065L65.6905 16.536H65.6185C64.9945 17.016 64.2985 17.432 63.5305 17.784C62.7785 18.12 62.0025 18.288 61.2025 18.288ZM62.0425 16.128C62.6345 16.128 63.2025 16 63.7465 15.744C64.3065 15.472 64.8585 15.12 65.4025 14.688V12.192C63.9945 12.288 62.8905 12.448 62.0905 12.672C61.2905 12.88 60.7305 13.152 60.4105 13.488C60.0905 13.824 59.9305 14.2 59.9305 14.616C59.9305 14.968 60.0265 15.256 60.2185 15.48C60.4105 15.704 60.6585 15.872 60.9625 15.984C61.2825 16.08 61.6425 16.128 62.0425 16.128ZM71.9211 18V6.216H74.2011L74.4171 7.992H74.5131C75.0731 7.416 75.6891 6.928 76.3611 6.528C77.0491 6.128 77.8491 5.928 78.7611 5.928C80.1211 5.928 81.1211 6.344 81.7611 7.176C82.4011 8.008 82.7211 9.184 82.7211 10.704V18H79.9371V11.064C79.9371 10.12 79.7691 9.424 79.4331 8.976C79.0971 8.528 78.5291 8.304 77.7291 8.304C77.1531 8.304 76.6411 8.44 76.1931 8.712C75.7451 8.984 75.2491 9.4 74.7051 9.96V18H71.9211ZM91.5918 18.288C90.4878 18.288 89.4318 18.088 88.4238 17.688C87.4158 17.288 86.5198 16.72 85.7358 15.984L87.3678 14.088C87.9598 14.616 88.6318 15.048 89.3838 15.384C90.1358 15.704 90.9278 15.864 91.7598 15.864C92.6718 15.864 93.3678 15.688 93.8478 15.336C94.3278 14.968 94.5678 14.512 94.5678 13.968C94.5678 13.504 94.4558 13.136 94.2318 12.864C94.0078 12.576 93.6958 12.336 93.2958 12.144C92.9118 11.952 92.4558 11.752 91.9278 11.544L89.7918 10.608C89.2478 10.384 88.7118 10.096 88.1838 9.744C87.6718 9.392 87.2478 8.944 86.9118 8.4C86.5918 7.856 86.4318 7.2 86.4318 6.432C86.4318 5.6 86.6638 4.856 87.1278 4.2C87.5918 3.528 88.2318 3 89.0478 2.616C89.8798 2.216 90.8238 2.016 91.8798 2.016C92.8398 2.016 93.7518 2.2 94.6158 2.568C95.4958 2.92 96.2638 3.4 96.9198 4.008L95.4798 5.784C94.9518 5.352 94.3918 5.024 93.7998 4.8C93.2238 4.56 92.5358 4.44 91.7358 4.44C90.9998 4.44 90.3998 4.6 89.9358 4.92C89.4718 5.24 89.2398 5.696 89.2398 6.288C89.2398 6.688 89.3678 7.016 89.6238 7.272C89.8798 7.528 90.2078 7.752 90.6078 7.944C91.0238 8.136 91.4638 8.32 91.9278 8.496L93.9918 9.384C94.6638 9.64 95.2558 9.952 95.7678 10.32C96.2798 10.688 96.6798 11.144 96.9678 11.688C97.2558 12.216 97.3998 12.864 97.3998 13.632C97.3998 14.48 97.1678 15.256 96.7038 15.96C96.2398 16.664 95.5758 17.232 94.7118 17.664C93.8478 18.08 92.8078 18.288 91.5918 18.288ZM104.374 18.288C103.606 18.288 102.926 18.144 102.334 17.856C101.742 17.552 101.278 17.144 100.942 16.632C100.606 16.12 100.438 15.52 100.438 14.832C100.438 13.52 101.062 12.52 102.31 11.832C103.574 11.128 105.662 10.672 108.574 10.464C108.542 10.032 108.422 9.64 108.214 9.288C108.022 8.936 107.726 8.664 107.326 8.472C106.926 8.264 106.406 8.16 105.766 8.16C105.318 8.16 104.878 8.216 104.446 8.328C104.014 8.44 103.582 8.592 103.15 8.784C102.734 8.976 102.318 9.184 101.902 9.408L100.894 7.56C101.374 7.272 101.902 7.008 102.478 6.768C103.054 6.512 103.662 6.312 104.302 6.168C104.942 6.008 105.598 5.928 106.27 5.928C107.374 5.928 108.294 6.128 109.03 6.528C109.782 6.912 110.35 7.488 110.734 8.256C111.134 9.008 111.334 9.928 111.334 11.016V18H109.078L108.862 16.536H108.79C108.166 17.016 107.47 17.432 106.702 17.784C105.95 18.12 105.174 18.288 104.374 18.288ZM105.214 16.128C105.806 16.128 106.374 16 106.918 15.744C107.478 15.472 108.03 15.12 108.574 14.688V12.192C107.166 12.288 106.062 12.448 105.262 12.672C104.462 12.88 103.902 13.152 103.582 13.488C103.262 13.824 103.102 14.2 103.102 14.616C103.102 14.968 103.198 15.256 103.39 15.48C103.582 15.704 103.83 15.872 104.134 15.984C104.454 16.08 104.814 16.128 105.214 16.128ZM121.381 18.288C120.149 18.288 119.037 18.048 118.045 17.568C117.069 17.072 116.293 16.368 115.717 15.456C115.157 14.528 114.877 13.416 114.877 12.12C114.877 10.808 115.181 9.696 115.789 8.784C116.413 7.856 117.237 7.152 118.261 6.672C119.285 6.176 120.389 5.928 121.573 5.928C122.533 5.928 123.381 6.088 124.117 6.408C124.853 6.712 125.461 7.104 125.941 7.584L124.621 9.312C124.157 8.944 123.685 8.664 123.205 8.472C122.741 8.28 122.245 8.184 121.717 8.184C120.933 8.184 120.237 8.352 119.629 8.688C119.037 9.008 118.573 9.464 118.237 10.056C117.901 10.648 117.733 11.336 117.733 12.12C117.733 12.904 117.893 13.592 118.213 14.184C118.549 14.776 119.005 15.232 119.581 15.552C120.173 15.872 120.861 16.032 121.645 16.032C122.317 16.032 122.933 15.904 123.493 15.648C124.053 15.392 124.557 15.088 125.005 14.736L126.157 16.512C125.485 17.088 124.733 17.528 123.901 17.832C123.069 18.136 122.229 18.288 121.381 18.288ZM129.484 18V1.056H132.268V5.424L132.1 7.944H132.172C132.684 7.4 133.276 6.928 133.948 6.528C134.636 6.128 135.428 5.928 136.324 5.928C137.684 5.928 138.684 6.344 139.324 7.176C139.964 8.008 140.284 9.184 140.284 10.704V18H137.5V11.064C137.5 10.12 137.332 9.424 136.996 8.976C136.66 8.528 136.092 8.304 135.292 8.304C134.716 8.304 134.204 8.44 133.756 8.712C133.308 8.984 132.812 9.4 132.268 9.96V18H129.484ZM148.218 18.288C146.714 18.288 145.498 17.744 144.57 16.656C143.642 15.568 143.178 14.056 143.178 12.12C143.178 10.84 143.426 9.736 143.922 8.808C144.418 7.88 145.066 7.168 145.866 6.672C146.666 6.176 147.506 5.928 148.386 5.928C149.058 5.928 149.65 6.048 150.162 6.288C150.69 6.528 151.178 6.872 151.626 7.32H151.698L151.554 5.328V1.056H154.338V18H152.058L151.842 16.632H151.77C151.322 17.08 150.786 17.472 150.162 17.808C149.538 18.128 148.89 18.288 148.218 18.288ZM148.89 16.008C149.37 16.008 149.834 15.896 150.282 15.672C150.73 15.432 151.154 15.072 151.554 14.592V9.288C151.138 8.888 150.722 8.608 150.306 8.448C149.89 8.288 149.466 8.208 149.034 8.208C148.49 8.208 147.986 8.36 147.522 8.664C147.074 8.968 146.714 9.408 146.442 9.984C146.17 10.56 146.034 11.264 146.034 12.096C146.034 13.36 146.282 14.328 146.778 15C147.29 15.672 147.994 16.008 148.89 16.008ZM164.217 18.288C163.017 18.288 161.929 18.048 160.953 17.568C159.977 17.072 159.201 16.368 158.625 15.456C158.049 14.528 157.761 13.408 157.761 12.096C157.761 10.816 158.049 9.72 158.625 8.808C159.201 7.88 159.953 7.168 160.881 6.672C161.809 6.176 162.801 5.928 163.857 5.928C165.025 5.928 166.009 6.168 166.809 6.648C167.625 7.128 168.241 7.792 168.657 8.64C169.089 9.472 169.305 10.432 169.305 11.52C169.305 11.792 169.289 12.056 169.257 12.312C169.241 12.552 169.217 12.752 169.185 12.912H159.753V10.944H167.409L166.881 11.568C166.881 10.4 166.617 9.528 166.089 8.952C165.577 8.36 164.857 8.064 163.929 8.064C163.273 8.064 162.681 8.216 162.153 8.52C161.641 8.824 161.233 9.28 160.929 9.888C160.625 10.48 160.473 11.216 160.473 12.096C160.473 13.008 160.641 13.76 160.977 14.352C161.329 14.944 161.809 15.392 162.417 15.696C163.041 16 163.761 16.152 164.577 16.152C165.201 16.152 165.777 16.064 166.305 15.888C166.833 15.712 167.361 15.472 167.889 15.168L168.825 16.896C168.201 17.296 167.497 17.632 166.713 17.904C165.929 18.16 165.097 18.288 164.217 18.288ZM176.376 18L171.672 6.216H174.456L176.736 12.336C176.944 12.912 177.144 13.496 177.336 14.088C177.544 14.68 177.736 15.28 177.912 15.888H178.008C178.2 15.28 178.392 14.68 178.584 14.088C178.776 13.496 178.976 12.912 179.184 12.336L181.464 6.216H184.104L179.52 18H176.376ZM190.718 18.288C189.95 18.288 189.27 18.144 188.678 17.856C188.086 17.552 187.622 17.144 187.286 16.632C186.95 16.12 186.782 15.52 186.782 14.832C186.782 13.52 187.406 12.52 188.654 11.832C189.918 11.128 192.006 10.672 194.918 10.464C194.886 10.032 194.766 9.64 194.558 9.288C194.366 8.936 194.07 8.664 193.67 8.472C193.27 8.264 192.75 8.16 192.11 8.16C191.662 8.16 191.222 8.216 190.79 8.328C190.358 8.44 189.926 8.592 189.494 8.784C189.078 8.976 188.662 9.184 188.246 9.408L187.238 7.56C187.718 7.272 188.246 7.008 188.822 6.768C189.398 6.512 190.006 6.312 190.646 6.168C191.286 6.008 191.942 5.928 192.614 5.928C193.718 5.928 194.638 6.128 195.374 6.528C196.126 6.912 196.694 7.488 197.078 8.256C197.478 9.008 197.678 9.928 197.678 11.016V18H195.422L195.206 16.536H195.134C194.51 17.016 193.814 17.432 193.046 17.784C192.294 18.12 191.518 18.288 190.718 18.288ZM191.558 16.128C192.15 16.128 192.718 16 193.262 15.744C193.822 15.472 194.374 15.12 194.918 14.688V12.192C193.51 12.288 192.406 12.448 191.606 12.672C190.806 12.88 190.246 13.152 189.926 13.488C189.606 13.824 189.446 14.2 189.446 14.616C189.446 14.968 189.542 15.256 189.734 15.48C189.926 15.704 190.174 15.872 190.478 15.984C190.798 16.08 191.158 16.128 191.558 16.128Z" fill="white"/>
</svg>
