<svg width="26" height="23" viewBox="0 0 26 23" fill="none" xmlns="http://www.w3.org/2000/svg">
<path d="M0 0.739136L3.33913 2.96522V14.0957L0 11.8696V0.739136Z" fill="#29B6F6"/>
<path d="M25.6001 9.08701L22.261 11.3131V18.5479L25.6001 16.3218V9.08701Z" fill="#0288D1"/>
<path d="M25.6001 1.29564L22.261 3.52172V7.41737L25.6001 5.19129V1.29564Z" fill="#0288D1"/>
<path d="M18.9216 0.739136L15.5825 2.96522V14.0957L18.9216 11.8696V0.739136Z" fill="#0288D1"/>
<path d="M0 4.63479L9.46087 10.7565V6.86088L0 0.739136V4.63479Z" fill="#29B6F6"/>
<path d="M18.9218 4.63479L9.46094 10.7565V6.86088L18.9218 0.739136V4.63479Z" fill="#0288D1"/>
<path d="M18.9218 12.426L9.46094 18.5478V14.6521L18.9218 8.53039V12.426Z" fill="#0288D1"/>
<path d="M25.6 16.8783L16.1392 23V19.1044L25.6 12.9826V16.8783Z" fill="#0288D1"/>
<path d="M16.1392 18.9735L9.46094 14.6521V18.5478L16.1392 22.8692V18.9735Z" fill="#29B6F6"/>
</svg>
