<svg width="32" height="32" viewBox="0 0 32 32" fill="none" xmlns="http://www.w3.org/2000/svg">
<path d="M16 32C24.8365 32 32 24.8365 32 16C32 7.16347 24.8365 0 16 0C7.16347 0 0 7.16347 0 16C0 24.8365 7.16347 32 16 32Z" fill="white"/>
<path fill-rule="evenodd" clip-rule="evenodd" d="M18.9733 6.04561L7.87344 6.8624C6.97844 6.93987 6.6665 7.52333 6.6665 8.2228V20.3544C6.6665 20.8995 6.8609 21.3653 7.3285 21.988L9.93777 25.3709C10.3664 25.9156 10.7558 26.0321 11.5742 25.9931L24.4644 25.2153C25.5546 25.1379 25.8665 24.6321 25.8665 23.7767V10.1283C25.8665 9.68613 25.6914 9.5584 25.1753 9.18187C25.1469 9.1612 25.1174 9.13973 25.087 9.1174L21.5438 6.62892C20.687 6.00704 20.3364 5.92879 18.9733 6.04561ZM11.8665 9.90447C10.8141 9.97547 10.575 9.9916 9.9773 9.5064L8.4575 8.30107C8.3025 8.1452 8.38024 7.9508 8.76944 7.9122L19.4407 7.13447C20.3362 7.05653 20.8034 7.36813 21.1541 7.64013L22.9844 8.96233C23.0624 9.00107 23.2568 9.23407 23.023 9.23407L12.0024 9.89533L11.8665 9.90447ZM10.639 23.6598V12.0729C10.639 11.5675 10.7948 11.334 11.2618 11.2947L23.9186 10.5562C24.348 10.5173 24.5424 10.7897 24.5424 11.2947V22.804C24.5424 23.3099 24.4642 23.7381 23.763 23.7767L11.6514 24.477C10.9504 24.5155 10.639 24.2825 10.639 23.6598ZM22.5956 12.6944C22.6732 13.0447 22.5956 13.3947 22.2444 13.4341L21.6608 13.5503V22.1045C21.1541 22.3766 20.6869 22.5322 20.2976 22.5322C19.6742 22.5322 19.5181 22.3376 19.0512 21.7547L15.234 15.7667V21.5603L16.4419 21.8326C16.4419 21.8326 16.4419 22.5322 15.4674 22.5322L12.7809 22.6879C12.7028 22.5322 12.7809 22.1437 13.0534 22.0658L13.7544 21.8717V14.2115L12.781 14.1335C12.703 13.7833 12.8974 13.2782 13.443 13.239L16.3251 13.0449L20.2976 19.1108V13.7447L19.2848 13.6285C19.207 13.2003 19.5181 12.8893 19.9076 12.8507L22.5956 12.6944Z" fill="black"/>
</svg>
