<svg width="32" height="31" viewBox="0 0 32 31" fill="none" xmlns="http://www.w3.org/2000/svg">
<path d="M26.4 0H5.6C2.50721 0 0 2.50721 0 5.6V25.3333C0 28.4261 2.50721 30.9333 5.6 30.9333H26.4C29.4928 30.9333 32 28.4261 32 25.3333V5.6C32 2.50721 29.4928 0 26.4 0Z" fill="#00005B"/>
<path d="M6.93323 22.784V8.26667C6.93061 8.24643 6.93267 8.22587 6.93925 8.20656C6.94583 8.18725 6.95676 8.16971 6.97118 8.15528C6.98561 8.14086 7.00315 8.12994 7.02246 8.12336C7.04177 8.11678 7.06233 8.11472 7.08256 8.11733C8.1639 8.08933 9.4399 8 11.1039 8C13.0666 8 14.5066 8.40933 15.4239 9.29067C15.8695 9.70763 16.2224 10.2138 16.4595 10.7761C16.6965 11.3385 16.8125 11.9445 16.7999 12.5547C16.7999 14.1627 16.231 15.3573 15.0932 16.1387C13.9555 16.92 12.5243 17.3111 10.7999 17.312L9.5999 17.3333V22.7627C9.60325 22.7859 9.60114 22.8095 9.59375 22.8317C9.58636 22.854 9.57389 22.8742 9.55732 22.8908C9.54075 22.9073 9.52054 22.9198 9.49831 22.9272C9.47607 22.9346 9.45242 22.9367 9.42923 22.9333H7.1039C6.99056 22.9333 6.93323 22.884 6.93323 22.784ZM9.5999 10.0827V15.3333C9.5999 15.3333 10.2079 15.3093 10.9332 15.3093C11.887 15.3093 12.6586 15.0996 13.2479 14.68C13.8372 14.2604 14.1323 13.5733 14.1332 12.6187C14.1332 11.7796 13.8737 11.1324 13.3546 10.6773C12.8355 10.2222 12.0852 9.99644 11.1039 10C10.8626 10 10.6239 10 10.3892 10.0107C10.1546 10.0213 9.96256 10.0213 9.81323 10.0213C9.6639 10.0213 9.5839 10.016 9.5999 10.0827ZM18.7999 12.2667H21.0666C21.1212 12.2648 21.1748 12.2813 21.219 12.3134C21.2632 12.3455 21.2955 12.3915 21.3106 12.444C21.4804 12.8072 21.5786 13.1997 21.5999 13.6C22.4559 12.4933 23.5092 12 24.9119 12C24.933 11.9962 24.9548 11.9976 24.9753 12.0041C24.9958 12.0105 25.0144 12.0218 25.0296 12.037C25.0448 12.0522 25.0561 12.0708 25.0625 12.0913C25.0689 12.1118 25.0703 12.1335 25.0666 12.1547V14.5093C25.0666 14.628 25.0079 14.6787 24.8892 14.664C23.6052 14.5907 22.5866 14.7587 21.8492 15.496C21.775 15.5582 21.7145 15.635 21.6716 15.7218C21.6287 15.8086 21.6043 15.9033 21.5999 16V22.7787C21.5999 22.8813 21.5412 22.9333 21.4226 22.9333H19.1319C18.9986 22.9333 18.9332 22.8747 18.9332 22.756V15.2C18.9332 13.4107 18.7999 13.156 18.6666 12.4213C18.6519 12.3187 18.6959 12.2667 18.7999 12.2667Z" fill="#9999FF"/>
</svg>
