<svg width="32" height="32" viewBox="0 0 32 32" fill="none" xmlns="http://www.w3.org/2000/svg">
<path d="M0 16C0 7.16347 7.16347 0 16 0C24.8365 0 32 7.16347 32 16C32 24.8365 24.8365 32 16 32C7.16347 32 0 24.8365 0 16Z" fill="#31C5F0"/>
<path d="M1.6001 16C1.6001 8.04713 8.04724 1.6 16.0001 1.6C23.953 1.6 30.4001 8.04713 30.4001 16C30.4001 23.9529 23.953 30.4 16.0001 30.4C8.04724 30.4 1.6001 23.9529 1.6001 16Z" fill="url(#paint0_radial_96_142)"/>
<path fill-rule="evenodd" clip-rule="evenodd" d="M8 9.27579C8 9.19219 8.17933 9.12945 8.28387 9.12945C9.09927 9.08765 10.2965 9.06672 11.5509 9.06672C15.0636 9.06672 16.4317 10.9903 16.4317 13.4576C16.4317 16.6775 14.0965 18.0575 11.232 18.0575C10.9698 18.0575 10.8008 18.0513 10.6471 18.0455C10.5189 18.0408 10.4014 18.0365 10.2493 18.0365V22.905C10.2493 23.0097 10.2075 23.0515 10.1029 23.0515H8.14633C8.0418 23.0515 8 23.0097 8 22.905V9.27579ZM10.2493 16.0084C10.542 16.0292 10.772 16.0292 11.2738 16.0292C12.7583 16.0292 14.1526 15.5065 14.1526 13.4993C14.1526 11.8891 13.1556 11.0739 11.462 11.0739C10.9602 11.0739 10.4793 11.0946 10.2493 11.1157V16.0083V16.0084ZM19.8181 15.423C19.8181 15.0048 20.1527 14.503 21.1563 14.503C21.9719 14.503 22.8023 14.7121 23.3667 15.0466C23.4921 15.0885 23.5549 15.0256 23.5549 14.9212V13.1854C23.5549 13.1017 23.5339 12.9973 23.4294 12.9345C23.0112 12.7464 22.2435 12.5791 21.1563 12.5791C18.9401 12.5791 17.6647 13.9383 17.6647 15.5692C17.6647 17.0327 18.4173 17.9109 20.2155 18.7683C21.4909 19.4372 21.7837 19.8346 21.7837 20.2946C21.7837 20.8591 21.3655 21.2773 20.3619 21.2773C19.5254 21.2773 18.6033 21.0472 17.8087 20.5246C17.7251 20.462 17.6624 20.5038 17.6624 20.6293V22.4901C17.6624 22.5947 17.6833 22.6574 17.7669 22.6992C18.3105 23.0127 19.2537 23.2429 20.3619 23.2429C22.4527 23.2429 24 22.1556 24 20.1273C24 18.7684 23.3727 17.8484 21.3864 16.8866C20.0481 16.1965 19.8181 15.883 19.8181 15.423Z" fill="#31C5F0"/>
<defs>
<radialGradient id="paint0_radial_96_142" cx="0" cy="0" r="1" gradientUnits="userSpaceOnUse" gradientTransform="translate(13.0821 11.1934) scale(18.7765)">
<stop stop-color="#0E0E17" stop-opacity="0.85"/>
<stop offset="0.767" stop-color="#0E0E17"/>
</radialGradient>
</defs>
</svg>
