<svg width="35" height="32" viewBox="0 0 35 32" fill="none" xmlns="http://www.w3.org/2000/svg">
<path d="M17.5001 19.349C19.2602 19.349 20.687 17.9222 20.687 16.1621C20.687 14.402 19.2602 12.9752 17.5001 12.9752C15.7401 12.9752 14.3132 14.402 14.3132 16.1621C14.3132 17.9222 15.7401 19.349 17.5001 19.349Z" fill="#61DAFB"/>
<path d="M29.6046 10.9065C28.9896 10.6829 28.3466 10.4593 27.6757 10.2636C27.8435 9.59265 27.9832 8.92172 28.095 8.27875C28.6821 4.58866 28.0391 1.98882 26.25 0.982425C25.7189 0.674917 25.1318 0.535141 24.4609 0.535141C22.504 0.535141 20.016 1.98882 17.5 4.42092C14.984 1.98882 12.496 0.535141 10.5391 0.535141C9.86821 0.535141 9.28115 0.674917 8.75 0.982425C6.96086 2.01677 6.31789 4.61661 6.90495 8.27875C7.01677 8.92172 7.15655 9.59265 7.32428 10.2636C6.65336 10.4593 6.01038 10.655 5.39537 10.9065C1.90096 12.2484 0 14.0935 0 16.1621C0 18.2308 1.92891 20.0759 5.39537 21.4177C6.01038 21.6414 6.65336 21.865 7.32428 22.0607C7.15655 22.7316 7.01677 23.4026 6.90495 24.0455C6.31789 27.7356 6.96086 30.3355 8.75 31.3419C9.28115 31.6494 9.86821 31.7891 10.5391 31.7891C12.524 31.7891 15.012 30.3355 17.5 27.9034C20.016 30.3355 22.504 31.7891 24.4609 31.7891C25.1318 31.7891 25.7189 31.6494 26.25 31.3419C28.0391 30.3075 28.6821 27.7077 28.095 24.0455C27.9832 23.4026 27.8435 22.7316 27.6757 22.0607C28.3466 21.865 28.9896 21.6693 29.6046 21.4177C33.099 20.0759 35 18.2308 35 16.1621C35 14.0935 33.099 12.2484 29.6046 10.9065ZM25.4673 2.38019C26.6134 3.05112 27.0048 5.11981 26.5296 8.05511C26.4457 8.64217 26.3059 9.25719 26.1382 9.90016C24.6845 9.5647 23.147 9.34105 21.5256 9.20128C20.5751 7.85942 19.5966 6.65735 18.6182 5.56709C20.6869 3.52636 22.7835 2.12859 24.4888 2.12859C24.8522 2.12859 25.1877 2.21246 25.4673 2.38019ZM22.3363 18.9577C21.8331 19.8522 21.246 20.7468 20.631 21.6414C19.5966 21.7252 18.5623 21.7532 17.5 21.7532C16.4097 21.7532 15.3754 21.7252 14.369 21.6414C13.754 20.7468 13.1949 19.8522 12.6917 18.9577C12.1605 18.0351 11.6573 17.0847 11.2101 16.1621C11.6573 15.2396 12.1605 14.2891 12.6917 13.3666C13.1949 12.472 13.7819 11.5775 14.397 10.6829C15.4313 10.599 16.4657 10.5711 17.528 10.5711C18.6182 10.5711 19.6526 10.599 20.6589 10.6829C21.274 11.5775 21.8331 12.472 22.3363 13.3666C22.8674 14.2891 23.3706 15.2396 23.8179 16.1621C23.3427 17.0847 22.8674 18.0072 22.3363 18.9577ZM24.6565 18.0351C25.0759 19.0136 25.4113 19.9641 25.7189 20.9145C24.7684 21.1382 23.762 21.3059 22.6997 21.4457C23.0351 20.9145 23.3986 20.3554 23.7061 19.7684C24.0415 19.1813 24.349 18.5942 24.6565 18.0351ZM17.5 25.611C16.8291 24.8842 16.1861 24.1014 15.5711 23.2907C16.2141 23.3187 16.857 23.3466 17.5 23.3466C18.143 23.3466 18.7859 23.3187 19.4289 23.2907C18.8139 24.1014 18.1709 24.8842 17.5 25.611ZM12.3003 21.4177C11.238 21.278 10.2316 21.1102 9.28115 20.8866C9.58866 19.9641 9.92412 18.9856 10.3435 18.0072C10.651 18.5663 10.9585 19.1534 11.2939 19.7125C11.6294 20.3275 11.9649 20.8586 12.3003 21.4177ZM10.3435 14.2891C9.92412 13.3107 9.58866 12.3602 9.28115 11.4097C10.2316 11.1861 11.238 11.0184 12.3003 10.8786C11.9649 11.4097 11.6014 11.9688 11.2939 12.5559C10.9585 13.143 10.651 13.73 10.3435 14.2891ZM17.5 6.71326C18.1709 7.44009 18.8139 8.22284 19.4289 9.03354C18.7859 9.00559 18.143 8.97763 17.5 8.97763C16.857 8.97763 16.2141 9.00559 15.5711 9.03354C16.1861 8.22284 16.8291 7.44009 17.5 6.71326ZM23.7061 12.5839L22.6997 10.9065C23.762 11.0463 24.7684 11.2141 25.7189 11.4377C25.4113 12.3602 25.0759 13.3387 24.6565 14.3171C24.349 13.73 24.0415 13.143 23.7061 12.5839ZM8.47045 8.05511C7.99521 5.11981 8.38658 3.05112 9.53275 2.38019C9.8123 2.21246 10.1478 2.12859 10.5112 2.12859C12.1885 2.12859 14.2851 3.4984 16.3818 5.56709C15.4034 6.62939 14.4249 7.85942 13.4744 9.20128C11.853 9.34105 10.3155 9.59265 8.86182 9.90016C8.69409 9.25719 8.58227 8.64217 8.47045 8.05511ZM1.5655 16.1621C1.5655 14.8482 3.15895 13.4505 5.95447 12.4161C6.51358 12.1925 7.12859 11.9968 7.74361 11.8291C8.1909 13.2268 8.75 14.7085 9.42093 16.1901C8.75 17.6717 8.16294 19.1254 7.74361 20.5232C3.88578 19.405 1.5655 17.7276 1.5655 16.1621ZM9.53275 29.9441C8.38658 29.2732 7.99521 27.2045 8.47045 24.2692C8.55431 23.6821 8.69409 23.0671 8.86182 22.4241C10.3155 22.7596 11.853 22.9832 13.4744 23.123C14.4249 24.4649 15.4034 25.6669 16.3818 26.7572C14.3131 28.7979 12.2165 30.1957 10.5112 30.1957C10.1478 30.1957 9.8123 30.1118 9.53275 29.9441ZM26.5296 24.2692C27.0048 27.2045 26.6134 29.2732 25.4673 29.9441C25.1877 30.1118 24.8522 30.1957 24.4888 30.1957C22.8115 30.1957 20.7149 28.8259 18.6182 26.7572C19.5966 25.6949 20.5751 24.4649 21.5256 23.123C23.147 22.9832 24.6845 22.7316 26.1382 22.4241C26.3059 23.0671 26.4177 23.6821 26.5296 24.2692ZM29.0455 19.9081C28.4864 20.1318 27.8714 20.3275 27.2564 20.4952C26.8091 19.0974 26.25 17.6158 25.5791 16.1342C26.25 14.6526 26.8371 13.1989 27.2564 11.8011C31.1142 12.9193 33.4345 14.5966 33.4345 16.1621C33.4345 17.476 31.8131 18.8738 29.0455 19.9081Z" fill="#61DAFB"/>
</svg>
