<svg width="35" height="21" viewBox="0 0 35 21" fill="none" xmlns="http://www.w3.org/2000/svg">
<path d="M28.875 6.15105C27.5626 5.69993 26.4041 4.88879 25.5325 3.81066C24.5718 2.60942 23.3486 1.64341 21.9564 0.9865C20.5642 0.329594 19.0398 -0.000794376 17.5 0.0206088C15.4286 -0.125796 13.378 0.511821 11.7565 1.80648C10.135 3.10115 9.06157 4.95786 8.75 7.00687C9.36368 5.98206 10.2873 5.17798 11.3879 4.71034C12.4886 4.2427 13.7095 4.13561 14.875 4.40449C16.1852 4.86874 17.3418 5.6846 18.2175 6.76235C19.1834 7.95399 20.409 8.91002 21.8009 9.55771C23.1929 10.2054 24.7145 10.5277 26.25 10.5C28.3214 10.6464 30.372 10.0088 31.9935 8.71413C33.615 7.41946 34.6884 5.56275 35 3.51374C34.3975 4.5508 33.4768 5.36703 32.3739 5.84191C31.271 6.3168 30.0443 6.42518 28.875 6.15105ZM6.125 14.8489C7.43741 15.3001 8.59585 16.1112 9.4675 17.1893C10.4282 18.3906 11.6514 19.3566 13.0436 20.0135C14.4358 20.6704 15.9602 21.0008 17.5 20.9794C19.5714 21.1258 21.622 20.4882 23.2435 19.1935C24.865 17.8989 25.9384 16.0421 26.25 13.9931C25.6363 15.0179 24.7127 15.822 23.6121 16.2897C22.5114 16.7573 21.2905 16.8644 20.125 16.5955C18.8148 16.1313 17.6582 15.3154 16.7825 14.2376C15.814 13.049 14.5879 12.095 13.1966 11.4476C11.8053 10.8002 10.2849 10.4762 8.75 10.5C6.67864 10.3536 4.62802 10.9912 3.00651 12.2859C1.385 13.5805 0.311574 15.4373 0 17.4863C0.602537 16.4492 1.52321 15.633 2.62611 15.1581C3.729 14.6832 4.95567 14.5748 6.125 14.8489Z" fill="#0BB6D4"/>
</svg>
