<svg width="29" height="29" viewBox="0 0 29 29" fill="none" xmlns="http://www.w3.org/2000/svg">
<path d="M2.06031 14.4992C2.06031 19.4231 4.92169 23.6779 9.07093 25.6946L3.13726 9.4368C2.42595 11.0297 2.05896 12.7547 2.06031 14.4992ZM22.8969 13.8715C22.8969 12.3342 22.3447 11.2695 21.8711 10.4409C21.2405 9.41621 20.6497 8.54849 20.6497 7.52385C20.6497 6.38038 21.5167 5.31597 22.7383 5.31597C22.7935 5.31597 22.8458 5.32284 22.8997 5.32591C20.6864 3.2984 17.7379 2.06049 14.4995 2.06049C10.1538 2.06049 6.33049 4.29014 4.10628 7.66728C4.39813 7.67604 4.6734 7.68196 4.90678 7.68196C6.20788 7.68196 8.22191 7.52409 8.22191 7.52409C8.89246 7.48456 8.97151 8.46944 8.30191 8.54873C8.30191 8.54873 7.62781 8.62802 6.87796 8.66731L11.4078 22.1411L14.1302 13.9768L12.192 8.66708C11.5221 8.62779 10.8875 8.54849 10.8875 8.54849C10.2172 8.5092 10.2958 7.48432 10.9661 7.52385C10.9661 7.52385 13.0204 7.68172 14.2427 7.68172C15.5435 7.68172 17.5578 7.52385 17.5578 7.52385C18.2288 7.48432 18.3076 8.4692 17.6376 8.54849C17.6376 8.54849 16.9623 8.62779 16.2139 8.66708L20.7091 22.0388L21.9496 17.8927C22.4876 16.1721 22.8969 14.9364 22.8969 13.8715Z" fill="#00749A"/>
<path d="M14.7178 15.5873L10.9856 26.4322C12.1266 26.7684 13.31 26.9392 14.4995 26.9391C15.9481 26.9391 17.3373 26.6885 18.6303 26.234C18.5956 26.1797 18.566 26.1224 18.5418 26.0627L14.7178 15.5873ZM25.4144 8.53127C25.4679 8.9275 25.4982 9.35307 25.4982 9.81036C25.4982 11.0726 25.2625 12.4916 24.5524 14.2659L20.7527 25.2515C24.4508 23.095 26.9383 19.0885 26.9383 14.4993C26.9416 12.4133 26.4174 10.3603 25.4144 8.53127Z" fill="#00749A"/>
<path d="M14.4996 -0.000610352C6.50431 -0.000610352 -0.000732422 6.50396 -0.000732422 14.4992C-0.000732422 22.4954 6.50407 29 14.4996 29C22.4946 29 29.0006 22.4957 29.0006 14.4992C29.0004 6.50396 22.4946 -0.000610352 14.4996 -0.000610352ZM14.4996 28.3351C6.87095 28.3351 0.664139 22.1283 0.664139 14.4992C0.664139 6.87083 6.87071 0.664498 14.4996 0.664498C22.128 0.664498 28.3343 6.87083 28.3343 14.4992C28.3343 22.1283 22.1277 28.3351 14.4996 28.3351Z" fill="#00749A"/>
</svg>
